<svg xmlns="http://www.w3.org/2000/svg" xmlns:xlink="http://www.w3.org/1999/xlink" version="1.1" x="0px" y="0px" width="80px" height="79.98px" viewBox="0 0 80 79.98" enable-background="new 0 0 80 79.98" xml:space="preserve">
  <g>
    <path fill="#fff" d="M75.16,20.84h-33.3v16.67h38.09C79.59,31.5,77.9,25.85,75.16,20.84" />
    <path fill="#fff" d="M37.8,58.64V41.59H0c0.24,6.14,1.86,11.93,4.57,17.05H37.8z" />
    <path fill="#fff" d="M37.8,20.84H4.84C2.1,25.85,0.41,31.5,0.04,37.51H37.8V20.84z" />
    <path fill="#fff" d="M80,41.59H41.87v17.05h33.56C78.13,53.51,79.76,47.73,80,41.59" />
    <path fill="#fff" d="M37.8,16.77V0.02C25.25,0.7,14.25,7.15,7.39,16.77H37.8z" />
    <path fill="#fff" d="M41.87,62.71v17.27c12.9-0.59,24.2-7.29,31.09-17.27H41.87z" />
    <path fill="#fff" d="M41.87,16.77h30.75C65.69,7.07,54.55,0.58,41.87,0V16.77z" />
    <path fill="#fff" d="M37.8,62.71H7.04c6.83,9.89,18,16.56,30.76,17.25V62.71z" />
  </g>
</svg>